<svg xmlns="http://www.w3.org/2000/svg" width="59.927" height="52.202" viewBox="0 0 59.927 52.202">
  <g id="customer-2" transform="translate(0 -33)">
    <ellipse id="Ellipse_96" data-name="Ellipse 96" cx="6.323" cy="6.587" rx="6.323" ry="6.587" transform="translate(44.262 40.413)" fill="#0a4eaf"/>
    <path id="Path_9081" data-name="Path 9081" d="M432,109.875V97a6.438,6.438,0,0,1,0,12.875Z" transform="translate(-381.436 -56.509)" fill="#136ef1"/>
    <path id="Path_9082" data-name="Path 9082" d="M371.61,248.9V261.56a3.562,3.562,0,0,1-3.565,3.551H355.7a1.756,1.756,0,0,1-1.756-1.756c0-1.707-.943-10.355-.943-14.456a7.933,7.933,0,0,1,7.947-7.9h2.715A7.933,7.933,0,0,1,371.61,248.9Z" transform="translate(-311.683 -183.655)" fill="#0a4eaf"/>
    <path id="Path_9083" data-name="Path 9083" d="M441.364,248.9V261.56a3.562,3.562,0,0,1-3.565,3.551H432V241h1.416A7.933,7.933,0,0,1,441.364,248.9Z" transform="translate(-381.436 -183.655)" fill="#136ef1"/>
    <ellipse id="Ellipse_97" data-name="Ellipse 97" cx="6.323" cy="6.587" rx="6.323" ry="6.587" transform="translate(3.162 40.413)" fill="#0a4eaf"/>
    <path id="Path_9084" data-name="Path 9084" d="M80,109.875V97a6.438,6.438,0,0,1,0,12.875Z" transform="translate(-70.636 -56.509)" fill="#136ef1"/>
    <path id="Path_9085" data-name="Path 9085" d="M18.61,248.9c0,4.233-.943,12.672-.943,14.456a1.756,1.756,0,0,1-1.756,1.756H3.442A3.439,3.439,0,0,1,0,261.682V248.9A7.933,7.933,0,0,1,7.947,241h2.715A7.933,7.933,0,0,1,18.61,248.9Z" transform="translate(0 -183.655)" fill="#0a4eaf"/>
    <path id="Path_9086" data-name="Path 9086" d="M89.247,248.9c0,4.233-.943,12.672-.943,14.456a1.756,1.756,0,0,1-1.756,1.756H80V241h1.3A7.933,7.933,0,0,1,89.247,248.9Z" transform="translate(-70.636 -183.655)" fill="#136ef1"/>
    <ellipse id="Ellipse_98" data-name="Ellipse 98" cx="10.012" cy="10.275" rx="10.012" ry="10.275" transform="translate(20.023 33.036)" fill="#1689fc"/>
    <path id="Path_9087" data-name="Path 9087" d="M256,53.366V33a10.183,10.183,0,1,1,0,20.366Z" transform="translate(-226.036)" fill="#36b0ff"/>
    <path id="Path_9088" data-name="Path 9088" d="M152.6,255.165v9.593a4.1,4.1,0,0,1-4.1,4.1H125.1a4.1,4.1,0,0,1-4.1-4.1v-9.593A14.181,14.181,0,0,1,135.165,241h3.273A14.181,14.181,0,0,1,152.6,255.165Z" transform="translate(-106.838 -183.655)" fill="#36b0ff"/>
    <path id="Path_9089" data-name="Path 9089" d="M271.8,255.165v9.593a4.1,4.1,0,0,1-4.1,4.1H256V241h1.636A14.181,14.181,0,0,1,271.8,255.165Z" transform="translate(-226.036 -183.655)" fill="#1689fc"/>
  </g>
</svg>
