<svg id="city" xmlns="http://www.w3.org/2000/svg" width="52.202" height="52.202" viewBox="0 0 52.202 52.202">
  <g id="Group_2859" data-name="Group 2859" transform="translate(27.294)">
    <path id="Path_9033" data-name="Path 9033" d="M267.7,0h3.059V6.123H267.7Z" transform="translate(-267.704)" fill="#005fe3"/>
  </g>
  <g id="Group_2860" data-name="Group 2860" transform="translate(28.824)">
    <path id="Path_9034" data-name="Path 9034" d="M282.7,0h1.529V6.123H282.7Z" transform="translate(-282.704)" fill="#392e6e"/>
  </g>
  <g id="Group_2861" data-name="Group 2861" transform="translate(3.619 17.411)">
    <path id="Path_9035" data-name="Path 9035" d="M35.495,170.772H52.269v34.181H35.495Z" transform="translate(-35.495 -170.772)" fill="#ffdc40"/>
  </g>
  <g id="Group_2862" data-name="Group 2862" transform="translate(11.382 17.411)">
    <path id="Path_9036" data-name="Path 9036" d="M111.637,170.772H119.4v34.181h-7.763Z" transform="translate(-111.637 -170.772)" fill="#ffdc40"/>
  </g>
  <g id="Group_2886" data-name="Group 2886" transform="translate(9.853 4.47)">
    <g id="Group_2885" data-name="Group 2885">
      <g id="Group_2863" data-name="Group 2863" transform="translate(9.293)">
        <path id="Path_9037" data-name="Path 9037" d="M204.2,50.317V43.846h-13.16v6.471H187.78V90.968h19.671V50.317Z" transform="translate(-187.78 -43.846)" fill="#0a4eaf"/>
      </g>
      <g id="Group_2864" data-name="Group 2864" transform="translate(18.971)">
        <path id="Path_9038" data-name="Path 9038" d="M289.441,50.317V43.846H282.7V90.968H292.7V50.317Z" transform="translate(-282.704 -43.846)" fill="#0a4eaf"/>
      </g>
      <g id="Group_2869" data-name="Group 2869" transform="translate(18.971 24.401)">
        <g id="Group_2865" data-name="Group 2865">
          <path id="Path_9039" data-name="Path 9039" d="M282.7,283.168h19.985v22.721H282.7Z" transform="translate(-282.704 -283.168)" fill="#36b0ff"/>
        </g>
        <g id="Group_2866" data-name="Group 2866" transform="translate(9.993)">
          <path id="Path_9040" data-name="Path 9040" d="M380.712,283.168H390.7v22.721h-9.993Z" transform="translate(-380.712 -283.168)" fill="#36b0ff"/>
        </g>
        <g id="Group_2867" data-name="Group 2867" transform="translate(5.208 5.401)">
          <path id="Path_9041" data-name="Path 9041" d="M333.781,336.144h3.059v17.32h-3.059Z" transform="translate(-333.781 -336.144)" fill="#d0e8ff"/>
        </g>
        <g id="Group_2868" data-name="Group 2868" transform="translate(11.719 5.401)">
          <path id="Path_9042" data-name="Path 9042" d="M397.643,336.144H400.7v17.32h-3.059Z" transform="translate(-397.643 -336.144)" fill="#9dcfff"/>
        </g>
      </g>
      <g id="Group_2876" data-name="Group 2876" transform="translate(14.154 4.837)">
        <g id="Group_2870" data-name="Group 2870" transform="translate(0 6.575)">
          <path id="Path_9043" data-name="Path 9043" d="M235.461,155.772h3.059v3.059h-3.059Z" transform="translate(-235.461 -155.772)" fill="#d0e8ff"/>
        </g>
        <g id="Group_2871" data-name="Group 2871" transform="translate(3.34)">
          <path id="Path_9044" data-name="Path 9044" d="M268.215,91.287h3.059v3.059h-3.059Z" transform="translate(-268.215 -91.287)" fill="#d0e8ff"/>
        </g>
        <g id="Group_2872" data-name="Group 2872" transform="translate(4.817)">
          <path id="Path_9045" data-name="Path 9045" d="M282.7,91.287h1.581v3.059H282.7Z" transform="translate(-282.704 -91.287)" fill="#9dcfff"/>
        </g>
        <g id="Group_2873" data-name="Group 2873" transform="translate(0.104 12.941)">
          <path id="Path_9046" data-name="Path 9046" d="M236.483,218.213h3.059v3.059h-3.059Z" transform="translate(-236.483 -218.213)" fill="#d0e8ff"/>
        </g>
        <g id="Group_2874" data-name="Group 2874" transform="translate(6.575 6.471)">
          <path id="Path_9047" data-name="Path 9047" d="M299.947,154.75h3.059v3.059h-3.059Z" transform="translate(-299.947 -154.75)" fill="#9dcfff"/>
        </g>
        <g id="Group_2875" data-name="Group 2875" transform="translate(6.575 12.941)">
          <path id="Path_9048" data-name="Path 9048" d="M299.947,218.213h3.059v3.059h-3.059Z" transform="translate(-299.947 -218.213)" fill="#9dcfff"/>
        </g>
      </g>
      <g id="Group_2877" data-name="Group 2877" transform="translate(0 17.882)">
        <path id="Path_9049" data-name="Path 9049" d="M96.637,219.235H99.7v3.059H96.637Z" transform="translate(-96.637 -219.235)" fill="#fff"/>
      </g>
      <g id="Group_2878" data-name="Group 2878" transform="translate(0 24.81)">
        <path id="Path_9050" data-name="Path 9050" d="M96.637,287.18H99.7v3.059H96.637Z" transform="translate(-96.637 -287.18)" fill="#fff"/>
      </g>
      <g id="Group_2879" data-name="Group 2879" transform="translate(0 31.737)">
        <path id="Path_9051" data-name="Path 9051" d="M96.637,355.125H99.7v3.059H96.637Z" transform="translate(-96.637 -355.125)" fill="#fff"/>
      </g>
      <g id="Group_2880" data-name="Group 2880" transform="translate(0 38.665)">
        <path id="Path_9052" data-name="Path 9052" d="M96.637,423.07H99.7v3.059H96.637Z" transform="translate(-96.637 -423.07)" fill="#fff"/>
      </g>
      <g id="Group_2881" data-name="Group 2881" transform="translate(1.529 17.882)">
        <path id="Path_9053" data-name="Path 9053" d="M111.637,219.235h1.529v3.059h-1.529Z" transform="translate(-111.637 -219.235)" fill="#e7f2ff"/>
      </g>
      <g id="Group_2882" data-name="Group 2882" transform="translate(1.529 24.81)">
        <path id="Path_9054" data-name="Path 9054" d="M111.637,287.18h1.529v3.059h-1.529Z" transform="translate(-111.637 -287.18)" fill="#e7f2ff"/>
      </g>
      <g id="Group_2883" data-name="Group 2883" transform="translate(1.529 31.737)">
        <path id="Path_9055" data-name="Path 9055" d="M111.637,355.125h1.529v3.059h-1.529Z" transform="translate(-111.637 -355.125)" fill="#e7f2ff"/>
      </g>
      <g id="Group_2884" data-name="Group 2884" transform="translate(1.529 38.665)">
        <path id="Path_9056" data-name="Path 9056" d="M111.637,423.07h1.529v3.059h-1.529Z" transform="translate(-111.637 -423.07)" fill="#e7f2ff"/>
      </g>
    </g>
  </g>
  <g id="Group_2887" data-name="Group 2887" transform="translate(0 49.143)">
    <path id="Path_9057" data-name="Path 9057" d="M0,482H52.2v3.059H0Z" transform="translate(0 -482)" fill="#d0e8ff"/>
  </g>
  <g id="Group_2888" data-name="Group 2888" transform="translate(26.101 49.143)">
    <path id="Path_9058" data-name="Path 9058" d="M256,482h26.1v3.059H256Z" transform="translate(-256 -482)" fill="#9dcfff"/>
  </g>
</svg>
