<svg xmlns="http://www.w3.org/2000/svg" xmlns:xlink="http://www.w3.org/1999/xlink" width="51.376" height="55.202" viewBox="0 0 51.376 55.202">
  <defs>
    <linearGradient id="linear-gradient" x1="0.409" y1="0.507" x2="-0.076" y2="0.264" gradientUnits="objectBoundingBox">
      <stop offset="0" stop-color="#4c8df1" stop-opacity="0"/>
      <stop offset="0.563" stop-color="#466cc8" stop-opacity="0.565"/>
      <stop offset="1" stop-color="#4256ac"/>
    </linearGradient>
    <linearGradient id="linear-gradient-2" x1="0.747" y1="0.693" x2="0.262" y2="0.497" xlink:href="#linear-gradient"/>
  </defs>
  <g id="settings" transform="translate(-17.674)">
    <g id="Group_2891" data-name="Group 2891" transform="translate(17.674 0)">
      <path id="Path_9090" data-name="Path 9090" d="M63.986,27.6a20.753,20.753,0,0,0-.139-2.4,3.109,3.109,0,0,1,1.05-2.689l3.155-2.768a2.932,2.932,0,0,0,.571-3.73l-3.375-5.54a2.932,2.932,0,0,0-3.575-1.2l-3.933,1.544a3.1,3.1,0,0,1-2.87-.329,20.588,20.588,0,0,0-2.881-1.621,3.1,3.1,0,0,1-1.767-2.277l-.727-4.159A2.932,2.932,0,0,0,46.606,0H40.119a2.932,2.932,0,0,0-2.888,2.427L36.5,6.586a3.1,3.1,0,0,1-1.767,2.277,20.588,20.588,0,0,0-2.881,1.621,3.1,3.1,0,0,1-2.87.329L25.052,9.269a2.932,2.932,0,0,0-3.575,1.2L18.1,16.013a2.932,2.932,0,0,0,.571,3.73l3.155,2.768a3.109,3.109,0,0,1,1.05,2.689,20.773,20.773,0,0,0,0,4.8,3.109,3.109,0,0,1-1.05,2.689l-3.155,2.768a2.932,2.932,0,0,0-.571,3.73l3.374,5.54a2.932,2.932,0,0,0,3.575,1.2l3.933-1.544a3.1,3.1,0,0,1,2.87.329,20.588,20.588,0,0,0,2.881,1.621A3.1,3.1,0,0,1,36.5,48.616l.727,4.159c.245,1.4,1.464,1.995,2.888,1.995h6.487c1.425,0,2.643-.591,2.888-1.994l.727-4.159a3.1,3.1,0,0,1,1.767-2.277,20.588,20.588,0,0,0,2.881-1.621,3.1,3.1,0,0,1,2.87-.329l3.933,1.544a2.932,2.932,0,0,0,3.575-1.2l3.374-5.54a2.932,2.932,0,0,0-.571-3.73L64.9,32.691A3.109,3.109,0,0,1,63.847,30a20.686,20.686,0,0,0,.139-2.4Z" transform="translate(-17.674 0)" fill="#36b0ff"/>
      <circle id="Ellipse_99" data-name="Ellipse 99" cx="16.858" cy="16.858" r="16.858" transform="translate(8.83 10.743)" fill="#1689fc"/>
    </g>
    <path id="Path_9091" data-name="Path 9091" d="M145.577,187.959a2.932,2.932,0,0,0,2.888-2.427l.727-4.159a3.1,3.1,0,0,1,1.767-2.277,20.588,20.588,0,0,0,2.881-1.621,3.1,3.1,0,0,1,2.87-.329l3.933,1.544a2.932,2.932,0,0,0,3.575-1.2l3.374-5.54a2.932,2.932,0,0,0-.571-3.729l-3.155-2.768a3.109,3.109,0,0,1-1.05-2.689c.055-.472.092-.95.115-1.431l-10.391-10.391a13.967,13.967,0,0,0-2.141-1.889.951.951,0,0,0-1.5.777v9.169a3.121,3.121,0,0,1-1.152,2.42c-.136-.131-12.1-12.072-12.2-12.192-.3-.362-.854-.265-1.292.048a13.287,13.287,0,0,0-5.6,11.114,13.666,13.666,0,0,0,4.229,10.165l2.987,3,.108,6.976a28.956,28.956,0,0,0,.218,5.01,2.933,2.933,0,0,0,2.889,2.427Z" transform="translate(-98.972 -132.757)" fill="url(#linear-gradient)"/>
    <path id="Path_9092" data-name="Path 9092" d="M232.586,181.406l-3.374,5.541a2.935,2.935,0,0,1-3.576,1.2l-3.933-1.545a3.1,3.1,0,0,0-2.869.329,20.635,20.635,0,0,1-2.881,1.621,3.1,3.1,0,0,0-1.766,2.276l-.727,4.16a2.668,2.668,0,0,1-2.888,2.1h-6.488a2.921,2.921,0,0,1-1.886-.687c-.262-.22-.485-.16-.657-.46a2.918,2.918,0,0,0,1.46.39h6.488a2.932,2.932,0,0,0,2.888-2.427q.216-1.24.326-2.5c.073-.836.109-1.676.109-2.514v-7.92a13.894,13.894,0,0,0,3.791-21.5q.489.435.933.918l10.391,10.391c-.023.482-.06.959-.115,1.431a3.111,3.111,0,0,0,1.05,2.69l3.155,2.768A2.931,2.931,0,0,1,232.586,181.406Z" transform="translate(-163.964 -142.218)" fill="url(#linear-gradient-2)"/>
    <path id="Path_9093" data-name="Path 9093" d="M207.031,351.812a29.092,29.092,0,0,0,.435-5.01V335.333H194.333V346.8a29.092,29.092,0,0,0,.435,5.01,2.932,2.932,0,0,0,2.888,2.427h6.487A2.932,2.932,0,0,0,207.031,351.812Z" transform="translate(-157.537 -299.037)" fill="#ffdc40"/>
    <path id="Path_9095" data-name="Path 9095" d="M154.443,160.357a13.891,13.891,0,1,1-21.966-11.3.952.952,0,0,1,1.508.772v9.169a3.122,3.122,0,0,0,1.561,2.7l3.446,1.989a3.121,3.121,0,0,0,3.122,0l3.446-1.989a3.121,3.121,0,0,0,1.561-2.7v-9.169a.951.951,0,0,1,1.5-.777A13.873,13.873,0,0,1,154.443,160.357Z" transform="translate(-97.189 -132.756)" fill="#ffdc40"/>
    <path id="Path_9096" data-name="Path 9096" d="M160.022,161.527a4.886,4.886,0,0,0,2.443,4.232l5.394,3.114a4.886,4.886,0,0,0,4.887,0l5.394-3.114a4.886,4.886,0,0,0,2.443-4.232V151.016a13.972,13.972,0,0,0-2.213-1.969.951.951,0,0,0-1.5.777v9.169a3.122,3.122,0,0,1-1.561,2.7l-3.446,1.989a3.121,3.121,0,0,1-3.122,0L165.3,161.7a3.121,3.121,0,0,1-1.561-2.7v-9.169a.952.952,0,0,0-1.508-.772,13.969,13.969,0,0,0-2.206,1.964v10.511Z" transform="translate(-126.94 -132.756)" fill="#f2d44e"/>
  </g>
</svg>
