<svg xmlns="http://www.w3.org/2000/svg" width="56.494" height="52.202" viewBox="0 0 56.494 52.202">
  <g id="customers" transform="translate(-0.001 -0.5)">
    <path id="Path_9070" data-name="Path 9070" d="M313.365,128.171v2.586a1.894,1.894,0,0,1-1.837,1.91,1.859,1.859,0,0,1-1.88-1.859V120.451a3.5,3.5,0,0,1,3.483-3.853h1.884L318,119.5l3.094-2.9h1.773a3.5,3.5,0,0,1,3.483,3.853v10.357a1.86,1.86,0,0,1-3.721,0v-2.231l-.035,1.376-.218-.005h-8.653l-.3.008-.045-1.784Zm0,0" transform="translate(-269.874 -101.191)" fill="#0a4eaf"/>
    <path id="Path_9071" data-name="Path 9071" d="M343.748,242.5a2.016,2.016,0,0,1-4.029.073l-.558-22,.3-.008h8.653l.218.005-.559,22a2.014,2.014,0,0,1-4.027-.073Zm0,0" transform="translate(-295.612 -191.814)" fill="#36b0ff"/>
    <path id="Path_9072" data-name="Path 9072" d="M354.388,32.416v1.411a3.338,3.338,0,0,1-3.338,3.338h-.063a3.338,3.338,0,0,1-3.338-3.338V32.416a3.338,3.338,0,0,1,3.338-3.338h.063A3.338,3.338,0,0,1,354.388,32.416Zm0,0" transform="translate(-303.01 -24.909)" fill="#0a4eaf"/>
    <path id="Path_9073" data-name="Path 9073" d="M277.9,3.838v1.41a3.338,3.338,0,0,1-3.338,3.338H274.5a3.338,3.338,0,0,1-3.338-3.338V3.838A3.338,3.338,0,0,1,274.5.5h.063A3.338,3.338,0,0,1,277.9,3.838Zm0,0" transform="translate(-236.343)" fill="#ffdc40"/>
    <path id="Path_9074" data-name="Path 9074" d="M158.554,128.171v2.586a1.894,1.894,0,0,1-1.838,1.91,1.859,1.859,0,0,1-1.88-1.859V120.451a3.5,3.5,0,0,1,3.484-3.853H160.2l2.985,2.9,3.094-2.9h1.774a3.5,3.5,0,0,1,3.482,3.853v10.357a1.86,1.86,0,0,1-3.721,0v-2.18l-.033,1.325-.22-.005h-8.652l-.3.008-.045-1.784Zm0,0" transform="translate(-134.94 -101.191)" fill="#36b0ff"/>
    <path id="Path_9075" data-name="Path 9075" d="M188.928,242.5a2.015,2.015,0,0,1-4.028.073l-.56-22,.3-.008H193.3l.22.005-.559,22a2.016,2.016,0,0,1-4.029-.073Zm0,0" transform="translate(-160.67 -191.814)" fill="#0a4eaf"/>
    <path id="Path_9076" data-name="Path 9076" d="M199.579,32.416v1.411a3.338,3.338,0,0,1-3.338,3.338h-.063a3.338,3.338,0,0,1-3.338-3.338V32.416a3.338,3.338,0,0,1,3.338-3.338h.063A3.338,3.338,0,0,1,199.579,32.416Zm0,0" transform="translate(-168.078 -24.909)" fill="#0a4eaf"/>
    <path id="Path_9077" data-name="Path 9077" d="M123.088,3.838v1.41a3.338,3.338,0,0,1-3.338,3.338h-.063a3.338,3.338,0,0,1-3.338-3.338V3.838A3.338,3.338,0,0,1,119.686.5h.063A3.338,3.338,0,0,1,123.088,3.838Zm0,0" transform="translate(-101.408)" fill="#ffdc40"/>
    <path id="Path_9078" data-name="Path 9078" d="M3.736,128.171v2.586a1.894,1.894,0,0,1-1.838,1.91,1.859,1.859,0,0,1-1.879-1.859V120.451A3.5,3.5,0,0,1,3.5,116.6H5.386l2.985,2.9,3.095-2.9h1.773a3.5,3.5,0,0,1,3.484,3.853v10.357a1.861,1.861,0,0,1-3.721,0v-2.182l-.034,1.327-.22-.005H4.1l-.3.008-.045-1.784Zm0,0" transform="translate(0 -101.191)" fill="#0a4eaf"/>
    <path id="Path_9079" data-name="Path 9079" d="M34.115,242.5a2.016,2.016,0,0,1-4.029.073l-.559-22,.3-.008h8.652l.22.005-.56,22a2.015,2.015,0,0,1-4.028-.073Zm0,0" transform="translate(-25.735 -191.814)" fill="#36b0ff"/>
    <path id="Path_9080" data-name="Path 9080" d="M44.759,32.416v1.411a3.338,3.338,0,0,1-3.338,3.338h-.063a3.338,3.338,0,0,1-3.338-3.338V32.416a3.338,3.338,0,0,1,3.338-3.338h.063A3.338,3.338,0,0,1,44.759,32.416Zm0,0" transform="translate(-33.137 -24.909)" fill="#0a4eaf"/>
  </g>
</svg>
